<?xml version="1.0" standalone="no"?>
<!DOCTYPE svg PUBLIC "-//W3C//DTD SVG 20010904//EN"
 "http://www.w3.org/TR/2001/REC-SVG-20010904/DTD/svg10.dtd">
<svg version="1.0" xmlns="http://www.w3.org/2000/svg"
 width="566.000000pt" height="96.000000pt" viewBox="0 0 566.000000 96.000000"
 preserveAspectRatio="xMidYMid meet">

<g transform="translate(0.000000,96.000000) scale(0.100000,-0.100000)"
fill="#000000" stroke="none">
<path d="M533 883 c9 -2 23 -2 30 0 6 3 -1 5 -18 5 -16 0 -22 -2 -12 -5z"/>
<path d="M430 860 c8 -5 20 -10 25 -10 6 0 3 5 -5 10 -8 5 -19 10 -25 10 -5 0
-3 -5 5 -10z"/>
<path d="M380 850 c-9 -6 -10 -10 -3 -10 6 0 15 5 18 10 8 12 4 12 -15 0z"/>
<path d="M345 831 c-3 -5 -2 -12 3 -15 5 -3 9 1 9 9 0 17 -3 19 -12 6z"/>
<path d="M5180 510 l0 -330 30 0 30 0 0 71 0 71 48 43 c26 25 50 44 54 45 4 0
45 -52 90 -115 77 -106 85 -115 116 -115 l32 0 -88 123 c-49 67 -92 128 -97
136 -5 9 21 42 86 107 l94 94 -35 0 c-31 -1 -50 -15 -165 -127 l-130 -126 -3
226 -2 227 -30 0 -30 0 0 -330z"/>
<path d="M726 819 c2 -4 13 -7 24 -6 23 2 17 10 -10 12 -10 1 -17 -2 -14 -6z"/>
<path d="M3570 501 l0 -321 180 0 c160 0 185 2 219 20 108 55 111 214 5 285
l-30 20 33 32 c56 57 65 138 22 209 -39 64 -56 69 -251 72 l-178 4 0 -321z
m359 231 c54 -53 46 -148 -15 -189 -23 -15 -49 -18 -154 -18 l-125 0 -3 118
-3 117 136 0 c136 0 137 0 164 -28z m27 -296 c28 -28 34 -42 34 -75 0 -50 -20
-92 -54 -115 -20 -13 -52 -16 -166 -16 l-140 0 0 120 0 120 146 0 146 0 34
-34z"/>
<path d="M279 783 c-12 -16 -12 -17 2 -6 12 10 18 10 29 0 12 -10 12 -9 1 6
-7 9 -15 17 -16 17 -1 0 -9 -8 -16 -17z"/>
<path d="M413 700 c-59 -35 -54 -111 8 -142 27 -14 60 -18 160 -18 138 0 166
-9 213 -73 30 -40 30 -153 0 -193 -50 -67 -55 -69 -287 -74 l-212 -5 77 -39
c63 -32 92 -40 150 -44 200 -12 373 126 410 328 13 70 2 148 -32 229 l-22 51
-217 0 c-197 0 -219 -2 -248 -20z"/>
<path d="M209 683 c-13 -16 -12 -17 4 -4 16 13 21 21 13 21 -2 0 -10 -8 -17
-17z"/>
<path d="M1175 636 c-155 -68 -192 -280 -69 -403 66 -66 184 -84 271 -42 45
22 89 72 78 89 -10 17 -44 11 -54 -9 -14 -25 -89 -61 -129 -61 -45 0 -92 22
-125 58 -28 30 -59 100 -50 114 2 5 94 8 204 8 l199 0 0 28 c0 80 -64 181
-134 213 -48 22 -147 24 -191 5z m152 -41 c21 -9 46 -23 56 -33 25 -22 57 -86
57 -112 0 -19 -6 -20 -169 -20 -94 0 -172 4 -175 9 -8 12 13 70 37 105 23 32
88 65 130 66 15 0 44 -7 64 -15z"/>
<path d="M1730 631 c-86 -47 -129 -120 -130 -219 0 -73 15 -114 61 -167 60
-68 155 -92 252 -63 44 13 107 67 107 91 0 24 -48 28 -64 5 -20 -29 -85 -58
-129 -58 -45 0 -82 18 -119 57 -82 86 -59 247 42 300 71 38 133 30 192 -24 20
-20 33 -24 53 -19 25 6 26 8 12 29 -8 12 -31 35 -51 52 -34 27 -46 30 -114 33
-60 2 -85 -2 -112 -17z"/>
<path d="M2132 468 c3 -142 8 -191 20 -220 46 -103 208 -105 299 -5 l29 31 0
-32 c0 -52 61 -97 77 -56 3 9 -1 29 -11 44 -13 24 -16 60 -16 225 l0 196 -27
-3 -28 -3 -5 -160 c-5 -175 -9 -188 -67 -232 -30 -23 -46 -28 -96 -28 -49 0
-62 4 -78 23 -31 39 -39 90 -39 250 l0 152 -31 0 -31 0 4 -182z"/>
<path d="M2670 415 l0 -235 30 0 30 0 0 157 0 156 45 44 c32 30 57 45 85 49
36 6 40 10 40 35 0 19 -5 29 -15 29 -35 0 -92 -33 -127 -73 l-38 -42 0 58 c0
54 -1 57 -25 57 l-25 0 0 -235z"/>
<path d="M3145 632 c-118 -56 -169 -204 -111 -327 44 -92 112 -135 216 -135
63 0 107 16 148 54 40 35 46 55 22 64 -17 6 -29 1 -54 -24 -84 -84 -219 -62
-273 46 -43 83 -50 80 182 80 l205 0 -6 43 c-9 68 -54 147 -102 181 -37 26
-54 31 -115 34 -54 2 -82 -2 -112 -16z m173 -43 c48 -24 89 -78 94 -124 l3
-30 -172 -3 c-195 -3 -190 -5 -154 73 44 95 135 129 229 84z"/>
<path d="M4300 644 c-42 -17 -100 -47 -100 -52 0 -4 4 -13 9 -20 7 -11 16 -10
50 7 125 64 241 13 241 -108 0 -37 -2 -42 -17 -36 -10 4 -53 10 -96 13 -135 8
-217 -42 -217 -135 0 -89 60 -143 159 -143 60 0 115 20 154 57 l27 27 0 -26
c0 -28 28 -58 53 -58 12 0 17 9 17 29 0 17 -4 33 -10 36 -6 4 -10 63 -10 143
0 123 -2 142 -22 182 -34 66 -66 84 -151 87 -40 1 -79 0 -87 -3z m178 -245
c33 -13 32 -95 -2 -132 -69 -74 -202 -73 -240 2 -22 42 -20 65 9 100 39 46
150 60 233 30z"/>
<path d="M4677 644 c-4 -4 -7 -110 -7 -236 l0 -228 29 0 30 0 3 153 c3 151 4
154 31 190 54 71 148 97 200 57 38 -30 47 -77 47 -247 l0 -153 31 0 31 0 -4
183 c-3 161 -6 187 -25 223 -25 47 -57 64 -122 64 -57 0 -144 -40 -169 -78
l-17 -26 -5 49 c-4 41 -9 51 -25 53 -12 2 -24 0 -28 -4z"/>
<path d="M272 600 c0 -14 2 -19 5 -12 2 6 2 18 0 25 -3 6 -5 1 -5 -13z"/>
<path d="M310 516 c0 -2 12 -12 28 -21 l27 -18 -19 21 c-17 20 -36 29 -36 18z"/>
<path d="M161 484 c0 -11 3 -14 6 -6 3 7 2 16 -1 19 -3 4 -6 -2 -5 -13z"/>
<path d="M438 453 c7 -3 16 -2 19 1 4 3 -2 6 -13 5 -11 0 -14 -3 -6 -6z"/>
<path d="M555 453 c43 -2 84 -8 91 -14 8 -7 15 -6 20 2 4 7 3 9 -4 5 -6 -3
-13 -2 -17 4 -4 6 -41 9 -88 8 l-82 -2 80 -3z"/>
<path d="M190 349 c0 -5 5 -7 10 -4 6 3 10 8 10 11 0 2 -4 4 -10 4 -5 0 -10
-5 -10 -11z"/>
<path d="M646 312 c-3 -4 4 -9 15 -9 23 -2 25 3 4 10 -8 4 -16 3 -19 -1z"/>
</g>
</svg>
